HIERARCHY
ROOT Hips
{
	OFFSET 0 0 0
	CHANNELS 6 Xposition Yposition Zposition Yrotation Xrotation Zrotation
	JOINT Spine
	{
		OFFSET -0 8.14876 -2.59742
		CHANNELS 3 Yrotation Xrotation Zrotation
		JOINT Spine1
		{
			OFFSET -0 7.67319 0
			CHANNELS 3 Yrotation Xrotation Zrotation
			JOINT Spine2
			{
				OFFSET -0 7.67319 0
				CHANNELS 3 Yrotation Xrotation Zrotation
				JOINT Spine3
				{
					OFFSET -0 7.67319 0
					CHANNELS 3 Yrotation Xrotation Zrotation
					JOINT Neck
					{
						OFFSET -0 20.4825 3.59742
						CHANNELS 3 Yrotation Xrotation Zrotation
						JOINT Head
						{
							OFFSET -0 10.186 0
							CHANNELS 3 Yrotation Xrotation Zrotation
							End Site
							{
								OFFSET 0 15 0
							}
						}
					}
					JOINT LeftShoulder
					{
						OFFSET 1.69766 8.35598 3.39532
						CHANNELS 3 Yrotation Xrotation Zrotation
						JOINT LeftArm
						{
							OFFSET 15.6065 0 0
							CHANNELS 3 Yrotation Xrotation Zrotation
							JOINT LeftForeArm
							{
								OFFSET 25.8005 0 0
								CHANNELS 3 Yrotation Xrotation Zrotation
								JOINT LeftHand
								{
									OFFSET 24.1595 0 0
									CHANNELS 3 Yrotation Xrotation Zrotation
									End Site
									{
										OFFSET 15 0 0
									}
								}
							}
						}
					}
					JOINT RightShoulder
					{
						OFFSET -1.69766 8.35598 3.39532
						CHANNELS 3 Yrotation Xrotation Zrotation
						JOINT RightArm
						{
							OFFSET -15.6065 0 0
							CHANNELS 3 Yrotation Xrotation Zrotation
							JOINT RightForeArm
							{
								OFFSET -25.8005 0 0
								CHANNELS 3 Yrotation Xrotation Zrotation
								JOINT RightHand
								{
									OFFSET -24.1595 0 0
									CHANNELS 3 Yrotation Xrotation Zrotation
									End Site
									{
										OFFSET -15 0 0
									}
								}
							}
						}
					}
				}
			}
		}
	}
	JOINT LeftUpLeg
	{
		OFFSET 10.186 -3.39532 2
		CHANNELS 3 Yrotation Xrotation Zrotation
		JOINT LeftLeg
		{
			OFFSET -0 -40.8746 2.37672
			CHANNELS 3 Yrotation Xrotation Zrotation
			JOINT LeftFoot
			{
				OFFSET -0 -40.8058 -2.37672
				CHANNELS 3 Yrotation Xrotation Zrotation
				JOINT LeftToeBase
				{
					OFFSET -0 -6.55466 15.2789
					CHANNELS 3 Yrotation Xrotation Zrotation
					End Site
					{
						OFFSET 0 0 5
					}
				}
			}
		}
	}
	JOINT RightUpLeg
	{
		OFFSET -10.186 -3.39532 2
		CHANNELS 3 Yrotation Xrotation Zrotation
		JOINT RightLeg
		{
			OFFSET -0 -40.8746 2.37672
			CHANNELS 3 Yrotation Xrotation Zrotation
			JOINT RightFoot
			{
				OFFSET -0 -40.8058 -2.37672
				CHANNELS 3 Yrotation Xrotation Zrotation
				JOINT RightToeBase
				{
					OFFSET -0 -6.55466 15.2789
					CHANNELS 3 Yrotation Xrotation Zrotation
					End Site
					{
						OFFSET 0 0 5
					}
				}
			}
		}
	}
}
MOTION
Frames: 16
Frame Time: 0.00833333
0 94.231349 0 0 0 0 0 0 0 0 0 0 0 0 0 0 0 0 0 0 0 0 0 0 0 0 0 0 0 0 0 0 0 0 0 0 0 0 0 0 0 0 0 0 0 0 0 0 0 0 0 0 0 0 0 0 0 0 0 0 0 0 0 0 0 0 0 0 0 0 0 0
2.525598 93.887006 -54.233313 -0.717775 -2.904749 0.195981 0.310485 1.654869 -0.575825 0.066560 1.752943 -0.447861 -0.260919 1.750313 -0.327023 -0.453895 1.777355 -0.234946 -0.947612 -6.471633 2.652415 -0.404891 2.321801 0.217679 10.365911 7.423020 -1.759956 -25.374066 1.065817 -48.201634 -19.202880 -7.211669 12.426315 18.029893 11.075121 -8.319385 -7.911194 7.828467 5.491138 22.915157 5.315111 48.037733 24.325641 -0.406012 -9.897056 -11.448079 0.185858 13.158058 1.628244 7.725901 3.893285 0.000000 2.826628 0.000000 6.903006 -2.214957 0.139340 0.000000 -4.278098 0.000000 -10.253562 6.773592 -6.272528 0.000000 2.330348 0.000000 -7.931108 -0.916843 3.264312 0.000000 -7.266293 0.000000
2.523513 93.888019 -54.228412 -0.713194 -2.903826 0.197329 0.293609 1.652602 -0.583164 0.049685 1.746839 -0.449063 -0.253350 1.738125 -0.323060 -0.445505 1.792943 -0.230031 -0.943583 -6.440018 2.649349 -0.403590 2.323492 0.221532 10.380641 7.423344 -1.769204 -25.386080 1.089196 -48.223348 -19.185611 -7.162411 12.449086 18.043604 10.988071 -8.370326 -7.896592 7.837329 5.508134 22.924738 5.319462 48.047705 24.309534 -0.371671 -9.922097 -11.430641 0.173234 13.172601 1.626529 7.726671 3.893664 0.000000 2.828003 0.000000 6.901410 -2.210486 0.128902 0.000000 -4.299214 0.000000 -10.243908 6.776557 -6.271392 0.000000 2.331468 0.000000 -7.932415 -0.924464 3.212803 0.000000 -7.250227 0.000000
2.522655 93.886371 -54.222839 -0.717309 -2.901228 0.204407 0.310084 1.649365 -0.575948 0.066480 1.738288 -0.450173 -0.274573 1.745544 -0.330026 -0.466293 1.790745 -0.240286 -0.960617 -6.420487 2.635503 -0.412578 2.342180 0.251151 10.415587 7.445420 -1.768827 -25.402906 1.064677 -48.216111 -19.153285 -7.131513 12.441909 18.053429 10.974223 -8.443019 -7.904784 7.836527 5.503451 22.978443 5.323125 48.087825 24.291446 -0.400821 -9.931907 -11.418317 0.231893 13.143229 1.643759 7.724627 3.889639 0.000000 2.833847 0.000000 6.888408 -2.220680 0.138716 0.000000 -4.272548 0.000000 -10.233313 6.780355 -6.277449 0.000000 2.325292 0.000000 -7.946582 -0.924993 3.235359 0.000000 -7.255345 0.000000
2.522634 93.885590 -54.219440 -0.707048 -2.901060 0.196575 0.296432 1.617117 -0.581840 0.054156 1.770784 -0.442900 -0.260258 1.757185 -0.315138 -0.451247 1.785659 -0.234232 -0.967455 -6.404828 2.634809 -0.415153 2.349508 0.233154 10.385474 7.377124 -1.774069 -25.345794 1.089894 -48.287697 -19.159087 -7.103859 12.440580 18.099490 11.000437 -8.416875 -7.913999 7.816020 5.498611 22.949203 5.311446 48.103326 24.287917 -0.386372 -9.926539 -11.413565 0.219648 13.120739 1.630737 7.729619 3.893364 0.000000 2.828851 0.000000 6.899712 -2.228208 0.153669 0.000000 -4.270559 0.000000 -10.245592 6.779958 -6.271035 0.000000 2.337744 0.000000 -7.942654 -0.943115 3.256102 0.000000 -7.214890 0.000000
2.520325 93.886816 -54.214819 -0.695082 -2.900018 0.195594 0.292163 1.622459 -0.566517 0.049819 1.749497 -0.440129 -0.261461 1.757458 -0.324587 -0.451593 1.807230 -0.246264 -0.986300 -6.395083 2.632883 -0.423802 2.357121 0.241559 10.402781 7.407335 -1.792331 -25.366317 1.044921 -48.248024 -19.122840 -7.108908 12.415105 18.133484 11.001209 -8.373089 -7.927817 7.796043 5.514189 22.969035 5.322602 48.134733 24.291727 -0.408206 -9.958450 -11.390697 0.250029 13.165384 1.609378 7.733606 3.897302 0.000000 2.823499 0.000000 6.894418 -2.223170 0.130744 0.000000 -4.275931 0.000000 -10.246320 6.780458 -6.268105 0.000000 2.344644 0.000000 -7.946519 -0.944310 3.205229 0.000000 -7.238996 0.000000
2.519002 93.885248 -54.208105 -0.697040 -2.898204 0.197765 0.293006 1.631782 -0.574967 0.050087 1.720032 -0.439353 -0.253092 1.755596 -0.315891 -0.442292 1.823597 -0.238669 -1.020135 -6.394133 2.620932 -0.440065 2.415333 0.254114 10.392705 7.397794 -1.796898 -25.383960 1.071433 -48.269896 -19.109452 -7.088069 12.402921 18.142655 10.955274 -8.356513 -7.948942 7.788993 5.520042 22.971863 5.330407 48.141819 24.293299 -0.393999 -9.971912 -11.371175 0.212768 13.178339 1.614927 7.733099 3.895496 0.000000 2.828035 0.000000 6.898014 -2.230420 0.137704 0.000000 -4.288246 0.000000 -10.255530 6.782138 -6.271587 0.000000 2.343679 0.000000 -7.944982 -0.949764 3.238219 0.000000 -7.234685 0.000000
2.518295 93.884076 -54.203876 -0.696900 -2.897302 0.198559 0.295565 1.606542 -0.573361 0.054015 1.748434 -0.440555 -0.260064 1.756133 -0.318549 -0.449297 1.815538 -0.238860 -1.021805 -6.363837 2.642034 -0.440201 2.413937 0.233406 10.418590 7.396029 -1.789059 -25.378823 1.053988 -48.278130 -19.103672 -7.074526 12.371603 18.141718 10.953001 -8.346263 -7.930389 7.804034 5.531880 22.960519 5.319726 48.154159 24.298584 -0.387688 -9.975003 -11.365134 0.244841 13.139641 1.604612 7.734885 3.894369 0.000000 2.828094 0.000000 6.905986 -2.228205 0.140594 0.000000 -4.290143 0.000000 -10.237842 6.786725 -6.271197 0.000000 2.341996 0.000000 -7.961488 -0.947863 3.236031 0.000000 -7.245710 0.000000
2.517490 93.883838 -54.197809 -0.695565 -2.896285 0.199033 0.296936 1.592778 -0.568984 0.055954 1.755982 -0.438836 -0.253112 1.762301 -0.320316 -0.442075 1.818470 -0.243581 -1.049314 -6.357633 2.650792 -0.451943 2.422892 0.224351 10.409752 7.398776 -1.795904 -25.418656 1.078871 -48.282474 -19.088033 -7.086322 12.381685 18.123318 10.957840 -8.353019 -7.953025 7.790359 5.552183 22.966444 5.339758 48.163715 24.310916 -0.378722 -9.977777 -11.350525 0.245084 13.143840 1.605220 7.735269 3.895381 0.000000 2.832696 0.000000 6.896059 -2.221996 0.119733 0.000000 -4.285621 0.000000 -10.238615 6.788225 -6.272298 0.000000 2.346793 0.000000 -7.962426 -0.956539 3.264798 0.000000 -7.225814 0.000000
2.515607 93.883075 -54.193298 -0.681970 -2.895554 0.195321 0.295513 1.591792 -0.569320 0.054411 1.734638 -0.434804 -0.260586 1.777042 -0.313329 -0.448851 1.830556 -0.240460 -1.060190 -6.332044 2.638480 -0.456576 2.402944 0.228653 10.412813 7.397202 -1.806506 -25.395471 1.053868 -48.283485 -19.076647 -7.086069 12.352797 18.093883 10.983698 -8.354016 -7.949929 7.776067 5.549047 22.969929 5.332742 48.184310 24.299543 -0.389826 -9.985828 -11.333567 0.287560 13.179298 1.596724 7.738036 3.899488 0.000000 2.828256 0.000000 6.901937 -2.230768 0.121301 0.000000 -4.280291 0.000000 -10.245725 6.787834 -6.267398 0.000000 2.357617 0.000000 -7.971827 -0.965263 3.248324 0.000000 -7.231506 0.000000
2.514911 93.882343 -54.186261 -0.691451 -2.894396 0.197520 0.304353 1.592101 -0.571037 0.063013 1.716544 -0.436039 -0.263725 1.778405 -0.313270 -0.451148 1.856543 -0.240131 -1.070248 -6.346430 2.656584 -0.461155 2.427728 0.225161 10.422192 7.388224 -1.808659 -25.441075 1.094244 -48.294230 -19.084363 -7.103524 12.366470 18.070994 10.962463 -8.380324 -7.954907 7.774683 5.570188 22.968235 5.328961 48.178008 24.285600 -0.303554 -9.979182 -11.247377 0.249646 13.211465 1.611023 7.739879 3.896977 0.000000 2.834972 0.000000 6.903545 -2.246422 0.130244 0.000000 -4.275428 0.000000 -10.250613 6.788571 -6.268939 0.000000 2.354750 0.000000 -7.958006 -0.957792 3.251625 0.000000 -7.250247 0.000000
2.513813 93.882446 -54.183600 -0.691632 -2.894061 0.197403 0.300984 1.591435 -0.569094 0.059805 1.720613 -0.435028 -0.259060 1.774895 -0.313800 -0.446458 1.852815 -0.241004 -1.069928 -6.337806 2.650427 -0.461985 2.441839 0.242319 10.427164 7.389934 -1.814440 -25.443107 1.091654 -48.301433 -19.087524 -7.125174 12.365731 18.049846 11.014862 -8.416040 -7.951270 7.777058 5.573806 22.956528 5.318217 48.186128 24.282547 -0.317523 -9.968854 -11.213203 0.273814 13.240547 1.607010 7.740139 3.897819 0.000000 2.836113 0.000000 6.904335 -2.240230 0.127713 0.000000 -4.291798 0.000000 -10.242872 6.789855 -6.270068 0.000000 2.356562 0.000000 -7.956654 -0.955239 3.246922 0.000000 -7.267865 0.000000
2.514474 93.881787 -54.176208 -0.689189 -2.892952 0.198178 0.299145 1.574906 -0.568668 0.058595 1.730896 -0.432067 -0.264590 1.769775 -0.308821 -0.451316 1.852993 -0.241449 -1.057594 -6.294297 2.640392 -0.456886 2.415624 0.254469 10.426615 7.387905 -1.833555 -25.445324 1.129098 -48.304001 -19.093887 -7.157358 12.367353 18.035988 10.994121 -8.427190 -7.933037 7.790485 5.577482 22.949745 5.319487 48.194251 24.284019 -0.285213 -9.978865 -11.227917 0.264014 13.294736 1.600995 7.742335 3.897264 0.000000 2.841376 0.000000 6.904702 -2.235815 0.121457 0.000000 -4.309277 0.000000 -10.247371 6.791473 -6.270362 0.000000 2.361140 0.000000 -7.960227 -0.964834 3.236788 0.000000 -7.246481 0.000000
2.512818 93.881616 -54.170520 -0.684066 -2.892499 0.197243 0.308356 1.573250 -0.570237 0.067899 1.727974 -0.435114 -0.266227 1.774381 -0.311179 -0.453712 1.853879 -0.231891 -1.070019 -6.297515 2.651903 -0.462652 2.436183 0.255606 10.421712 7.393717 -1.820018 -25.413551 1.073248 -48.321825 -19.087470 -7.087444 12.331830 18.033453 10.989077 -8.419947 -7.948699 7.791070 5.591817 22.944237 5.323809 48.186851 24.284222 -0.225765 -9.955983 -11.241791 0.279962 13.210334 1.606894 7.742584 3.898902 0.000000 2.843456 0.000000 6.900196 -2.244393 0.120389 0.000000 -4.281181 0.000000 -10.254131 6.792025 -6.269202 0.000000 2.370575 0.000000 -7.958965 -0.972860 3.254441 0.000000 -7.230498 0.000000
2.512007 93.881738 -54.166315 -0.683677 -2.891259 0.197540 0.308878 1.578633 -0.566172 0.068267 1.718903 -0.433846 -0.263982 1.775491 -0.313295 -0.451403 1.848842 -0.236969 -1.079006 -6.282999 2.664991 -0.466526 2.444496 0.248213 10.429317 7.381200 -1.829076 -25.422835 1.087618 -48.321682 -19.081625 -7.077325 12.333521 18.008444 10.961330 -8.429731 -7.950608 7.780909 5.599592 22.918190 5.303336 48.202370 24.261858 -0.220664 -9.947650 -11.210783 0.313550 13.197510 1.602116 7.744145 3.900421 0.000000 2.844420 0.000000 6.897314 -2.252649 0.114390 0.000000 -4.284732 0.000000 -10.251357 6.793187 -6.269202 0.000000 2.373572 0.000000 -7.964028 -0.972381 3.253492 0.000000 -7.238926 0.000000
2.511353 93.880396 -54.160181 -0.679024 -2.890596 0.197307 0.308818 1.565765 -0.571167 0.068716 1.730878 -0.435374 -0.266860 1.777859 -0.311302 -0.454647 1.843755 -0.230082 -1.075605 -6.266277 2.672839 -0.465794 2.441063 0.268966 10.427818 7.392596 -1.826989 -25.431056 1.099031 -48.338900 -19.092202 -7.086837 12.350063 18.014345 10.923058 -8.430492 -7.943312 7.795732 5.609512 22.905917 5.288528 48.198559 24.272883 -0.221766 -9.941704 -11.245363 0.310126 13.199108 1.585195 7.746781 3.898950 0.000000 2.846682 0.000000 6.909710 -2.255448 0.108475 0.000000 -4.271500 0.000000 -10.252202 6.794894 -6.269637 0.000000 2.375872 0.000000 -7.966501 -0.975772 3.265656 0.000000 -7.247920 0.000000
